<!--?xml version="1.0" standalone="no"?-->
              <svg id="sw-js-blob-svg" viewBox="0 0 100 100" xmlns="http://www.w3.org/2000/svg" version="1.1">
                    <defs> 
                        <linearGradient id="sw-gradient" x1="0" x2="1" y1="1" y2="0">
                            <stop id="stop1" stop-color="rgba(248, 117, 55, 1)" offset="0%"></stop>
                            <stop id="stop2" stop-color="rgba(251, 168, 31, 1)" offset="100%"></stop>
                        </linearGradient>
                    </defs>
                <path fill="url(#sw-gradient)" d="M18.8,-26.2C24.9,-21.4,30.8,-16.7,33.4,-10.4C36,-4.2,35.3,3.5,32.2,9.6C29,15.7,23.4,20.1,17.6,26.4C11.9,32.7,5.9,40.9,-1.6,43.1C-9.1,45.4,-18.3,41.6,-24.3,35.3C-30.3,29.1,-33.2,20.4,-35.7,11.8C-38.1,3.2,-40.1,-5.2,-39,-13.9C-37.8,-22.5,-33.5,-31.3,-26.4,-35.8C-19.4,-40.3,-9.7,-40.5,-1.7,-38.2C6.3,-35.8,12.7,-31,18.8,-26.2Z" width="100%" height="100%" transform="translate(50 50)" stroke-width="0" style="transition: all 0.3s ease 0s;"></path>
              </svg>